HIERARCHY
ROOT hip
{
	OFFSET 0.000000 0.000000 0.000000 
	CHANNELS 6 Xposition Yposition Zposition Xrotation Zrotation Yrotation
	JOINT abdomen
	{
		OFFSET 0.000000 3.402643 0.000000 
		CHANNELS 3 Xrotation Zrotation Yrotation
		JOINT chest
		{
			OFFSET 0.000000 8.438565 -0.680529 
			CHANNELS 3 Xrotation Zrotation Yrotation
			JOINT neck
			{
				OFFSET 0.000000 10.207942 -0.272212 
				CHANNELS 3 Xrotation Zrotation Yrotation
				JOINT head
				{
					OFFSET 0.000000 3.130431 0.000000 
					CHANNELS 3 Xrotation Zrotation Yrotation
					End Site
					{
						OFFSET 0.000000 3.130435 0.000000 
					}
				}
			}
			JOINT lCollar
			{
				OFFSET 3.470700 6.669187 -0.816635 
				CHANNELS 3 Yrotation Zrotation Xrotation
				JOINT lShldr
				{
					OFFSET 3.198488 0.000000 0.000000 
					CHANNELS 3 Zrotation Yrotation Xrotation
					JOINT lForeArm
					{
						OFFSET 10.139888 0.000000 0.000000 
						CHANNELS 3 Yrotation Zrotation Xrotation
						JOINT lHand
						{
							OFFSET 8.370511 0.000000 0.000000 
							CHANNELS 3 Zrotation Yrotation Xrotation
							End Site
							{
								OFFSET 4.083176 0.000000 0.000000 
							}
						}
					}
				}
			}
			JOINT rCollar
			{
				OFFSET -3.470700 6.669187 -0.816635 
				CHANNELS 3 Yrotation Zrotation Xrotation
				JOINT rShldr
				{
					OFFSET -3.198488 0.000000 0.000000 
					CHANNELS 3 Zrotation Yrotation Xrotation
					JOINT rForeArm
					{
						OFFSET -10.139888 0.000000 0.000000 
						CHANNELS 3 Yrotation Zrotation Xrotation
						JOINT rHand
						{
							OFFSET -8.370511 0.000000 0.000000 
							CHANNELS 3 Zrotation Yrotation Xrotation
							End Site
							{
								OFFSET -4.083176 0.000000 0.000000 
							}
						}
					}
				}
			}
		}
	}
	JOINT lThigh
	{
		OFFSET 5.308129 -1.633274 1.361059 
		CHANNELS 3 Xrotation Zrotation Yrotation
		JOINT lShin
		{
			OFFSET -2.041588 -20.007561 0.000000 
			CHANNELS 3 Xrotation Zrotation Yrotation
			JOINT lFoot
			{
				OFFSET 0.000000 -19.190928 -1.224953 
				CHANNELS 3 Xrotation Yrotation Zrotation
				End Site
				{
					OFFSET 0.000000 -2.449906 4.627600 
				}
			}
		}
	}
	JOINT rThigh
	{
		OFFSET -5.308129 -1.633274 1.361059 
		CHANNELS 3 Xrotation Zrotation Yrotation
		JOINT rShin
		{
			OFFSET 2.041588 -20.007561 0.000000 
			CHANNELS 3 Xrotation Zrotation Yrotation
			JOINT rFoot
			{
				OFFSET 0.000000 -19.190928 -1.224953 
				CHANNELS 3 Xrotation Yrotation Zrotation
				End Site
				{
					OFFSET 0.000000 -2.449906 4.627600 
				}
			}
		}
	}
}
MOTION
Frames: 13
Frame Time: 0.016667
0.883775 38.097771 4.403578 14.053900 4.291920 1.845380 -14.594800 0.974837 -8.297200 20.248301 10.966600 -4.120090 -12.605000 5.427140 -0.772853 2.778560 7.764290 0.771031 2.000000 -2.000000 0.000000 -80.582199 0.197882 -166.524002 89.043503 -0.217132 0.136743 -179.921997 -179.901993 5.363470 -2.000000 2.000000 0.000000 85.472603 19.932699 154.167999 -92.637100 0.209008 0.117061 -0.122330 0.131079 168.292999 12.766887 -7.708880 -2.841655 29.373058 7.079717 1.774462 6.431098 12.759734 -3.689486 -55.898075 3.148111 5.773939 66.710175 -0.149273 -4.468784 -9.458796 1.141581 0.814012 
0.946925 38.274597 8.453912 13.794800 5.046240 0.778567 -15.310400 1.653410 -9.138210 19.985701 12.850900 -4.500980 -12.244700 4.614720 0.628297 2.808270 7.578810 1.364830 2.000000 -2.000000 0.000000 -81.118896 3.911360 -165.429001 87.900902 -0.219857 0.136670 0.073247 -0.101209 -171.667999 -2.000000 2.000000 0.000000 86.248100 20.257000 157.684006 -97.168404 0.199007 0.116203 179.895004 179.873001 -3.767340 15.389338 -9.194278 -2.732702 32.774029 7.407108 2.029939 7.499025 15.894600 -4.826713 -54.922459 2.156600 5.424351 55.445133 -1.026007 -3.942419 -9.259534 2.686236 0.920174 
0.928219 38.433033 12.476551 13.947600 6.095580 -0.177985 -15.362700 1.491230 -9.381350 20.867300 12.949000 -4.529580 -12.480500 4.387870 1.436700 2.680350 7.422490 1.742350 2.000000 -2.000000 0.000000 -80.298103 7.177720 -163.414001 85.088402 -0.226555 0.136261 0.077299 -0.082602 -167.908005 -2.000000 2.000000 0.000000 88.723503 22.202801 160.973007 -101.640999 0.189232 0.114585 179.906998 179.895996 2.492400 15.982653 -9.897834 -0.707168 38.102024 6.377980 2.284005 7.382928 13.607511 -3.714595 -53.719589 0.985361 4.704674 45.274582 -1.667013 -3.397976 -7.720644 4.157471 0.920521 
0.912652 38.412441 16.436251 13.784700 6.944590 -1.972230 -15.439900 1.451790 -9.013150 21.448000 12.820800 -4.283040 -12.076200 3.615800 2.706990 2.749620 6.963680 2.249600 2.000000 -2.000000 0.000000 -79.955704 11.266000 -160.679001 81.270103 -0.235600 0.135180 0.075707 -0.079890 -166.785004 -2.000000 2.000000 0.000000 90.818703 24.538099 164.690002 -105.528000 0.180863 0.112563 -0.091988 0.100059 -171.169998 15.425615 -10.541198 2.135977 45.818005 4.985541 2.670821 6.382880 9.840436 -1.971940 -52.331394 0.331851 3.265564 38.474621 -2.007599 -2.976880 -5.434394 6.681033 0.980959 
0.974497 38.161610 20.333263 12.802900 7.372770 -3.699510 -15.302500 1.842670 -8.795260 21.699800 13.122500 -4.103580 -14.940300 6.198380 2.049040 1.812890 7.694060 2.322740 2.000000 -2.000000 0.000000 -81.664902 15.324100 -158.276001 75.908699 -0.248136 0.132652 0.078785 -0.094793 -168.923996 -2.000000 2.000000 0.000000 91.401398 27.496099 169.339996 -108.974998 0.173569 0.110298 -0.080485 0.070496 -162.985992 14.281089 -10.564115 5.881269 55.874290 3.679328 3.153566 5.958592 7.323505 -0.710672 -49.981819 -0.284915 0.665363 35.810272 -2.124986 -2.821573 -3.756252 7.418610 0.962616 
1.093430 37.798679 24.162647 11.409200 6.788300 -5.234320 -15.188200 2.297060 -8.323350 21.027100 12.694900 -3.898750 -14.046600 4.312970 3.473420 1.971830 7.206540 2.761420 2.000000 -2.000000 0.000000 -83.892998 19.976700 -156.391006 69.844299 -0.261959 0.128395 0.073091 -0.100984 -171.570007 -2.000000 2.000000 0.000000 -88.679901 149.479004 -5.443040 -112.178001 0.166925 0.107804 -0.062025 0.048872 -154.656006 12.594413 -8.901869 10.635843 67.261246 2.490305 3.627964 6.228984 7.444592 -0.011682 -47.238335 -0.555632 -2.986751 37.022629 -2.037599 -2.913578 -3.727044 7.287173 1.159413 
1.240124 37.444633 28.028879 9.703570 5.516140 -7.407570 -14.554500 2.538700 -6.961580 20.646099 10.849600 -3.233570 -13.622300 3.010970 4.162320 2.396150 6.397150 2.974890 2.000000 -2.000000 0.000000 -85.398697 23.446400 -155.059998 62.373600 -0.278246 0.121182 -179.925995 -179.897995 7.970920 -2.000000 2.000000 0.000000 -89.034500 146.102997 -0.053893 -114.903000 0.161391 0.105394 -0.057547 0.031623 -148.289001 10.625073 -5.927501 16.271450 79.047333 1.329465 3.971132 6.510307 9.119892 0.307275 -43.984531 0.243576 -5.529788 42.548489 -1.747161 -3.279695 -8.999469 2.475425 1.383855 
1.283587 36.892437 31.497662 8.751090 3.918830 -8.185720 -13.952600 2.589510 -5.671240 20.072599 8.700870 -2.601690 -15.213800 2.190970 4.018310 2.004200 5.723160 2.818200 2.000000 -2.000000 0.000000 -85.898102 26.076300 -153.697998 54.395000 -0.294445 0.111212 0.080898 -0.098083 -170.320007 -2.000000 2.000000 0.000000 -89.545700 142.727005 5.252960 -116.406998 0.158387 0.103951 -0.055034 0.014256 -142.018997 6.966415 -0.992061 20.025166 91.261505 0.071037 4.168046 5.310727 9.365891 0.442914 -42.264324 1.700870 -5.264825 49.767212 -1.335055 -3.715033 -13.207312 0.943049 1.241996 
1.301696 36.318386 34.860615 7.755480 1.151480 -8.612560 -13.334600 3.531060 -4.519850 19.364700 7.547210 -1.933850 -16.462900 2.021730 3.607330 1.758980 5.644690 2.669970 2.000000 -2.000000 0.000000 -87.638603 27.990499 -153.619003 45.801201 -0.310161 0.098072 0.075734 -0.079938 -166.804993 -2.000000 2.000000 0.000000 88.278999 39.136200 -169.839996 -116.474998 0.158252 0.103884 -0.054481 0.004598 -135.076004 3.182921 5.744964 21.968664 102.932388 -1.150573 4.160600 5.337708 9.122512 -0.389511 -38.223690 4.237582 -5.977902 53.438156 -1.086604 -3.901003 -17.146624 -4.497413 -0.457409 
1.287295 36.545197 38.543850 8.767340 -3.590480 -8.053500 -12.988400 4.771340 -3.433210 19.586201 4.940700 -1.059840 -18.438000 3.398740 1.350260 1.059310 6.501240 1.863300 2.000000 -2.000000 0.000000 -87.356796 29.877199 -152.723999 39.873501 -0.319774 0.087706 0.072758 -0.074521 -164.597000 -2.000000 2.000000 0.000000 85.933098 38.818100 -167.457993 -115.401001 0.160392 0.104925 -0.055924 -0.012315 -129.011993 -2.816573 15.139237 21.507313 110.735374 -2.129956 4.109937 3.208072 5.199628 -0.641404 -32.541660 8.053815 -8.751340 51.656742 -1.109361 -3.849125 -20.103018 -7.672914 -2.355072 
1.205356 36.758755 42.148895 9.265530 -4.375970 -5.879330 -13.420600 5.148660 -2.331870 19.146999 3.963650 -0.439022 -18.254499 5.309590 -1.468890 1.675970 7.381370 0.910886 2.000000 -2.000000 0.000000 -84.741600 33.486198 -150.095001 39.561001 -0.320250 0.087132 0.072835 -0.074667 -164.656006 -2.000000 2.000000 0.000000 82.831596 36.230400 -167.567993 -112.246002 0.166785 0.107747 -0.056626 -0.016883 -127.361000 -11.528172 18.359943 17.545198 115.507843 -2.968500 4.123983 2.047683 0.997124 -0.544640 -27.294083 8.111531 -9.377907 49.818378 -1.267999 -3.712783 -22.307219 -10.102505 -4.275099 
1.116823 36.907490 45.686653 9.823530 -3.531570 -3.072070 -14.340700 5.728640 -1.341130 18.459499 4.781970 0.040548 -17.894300 5.765850 -4.249090 1.871200 7.957720 -0.345259 2.000000 -2.000000 0.000000 -81.445396 38.550999 -147.074005 43.906700 -0.313349 0.094868 0.077980 -0.093490 -168.376999 -2.000000 2.000000 0.000000 78.704498 32.611599 -169.363998 -105.878998 0.180113 0.112352 -0.056483 -0.016020 -127.674004 -21.407436 16.698118 11.889192 117.312775 -3.619864 4.210524 2.365310 -3.207716 -0.001424 -22.529133 6.736967 -10.183042 48.272217 -1.455277 -3.591536 -23.127159 -12.837338 -6.158950 
1.003172 37.209454 49.326969 10.271400 -4.151380 -1.923610 -14.457200 5.546790 0.908416 19.080000 2.967770 1.212700 -17.500200 6.776710 -7.444500 2.175520 8.485630 -1.765540 2.000000 -2.000000 0.000000 -72.819702 42.273102 -141.274002 50.713402 -0.301418 0.105872 -179.921997 -179.901993 5.549030 -2.000000 2.000000 0.000000 -102.841003 149.996994 7.065460 -96.504303 0.200468 0.116378 -0.057421 -0.021241 -125.778999 -29.831524 15.417193 7.604444 116.270432 -3.894511 4.378895 2.444389 -5.111794 0.432721 -17.159149 7.276172 -11.036045 45.573128 -1.745887 -3.372519 -21.563089 -12.694139 -5.939796 
